<?xml version="1.0" standalone="no"?>
<!DOCTYPE svg PUBLIC "-//W3C//DTD SVG 20010904//EN"
 "http://www.w3.org/TR/2001/REC-SVG-20010904/DTD/svg10.dtd">
<svg version="1.0" xmlns="http://www.w3.org/2000/svg"
 width="708.000000pt" height="708.000000pt" viewBox="0 0 708.000000 708.000000"
 preserveAspectRatio="xMidYMid meet">
<metadata>
Created by potrace 1.11, written by Peter Selinger 2001-2013
</metadata>
<g transform="translate(0.000000,708.000000) scale(0.100000,-0.100000)"
fill="#000000" stroke="none">
<path d="M2875 5405 c-409 -66 -756 -248 -1036 -543 -88 -92 -200 -236 -215
-275 -14 -36 32 -15 66 30 104 139 337 338 525 448 483 285 1095 349 1615 170
122 -42 131 -44 137 -27 6 16 -150 89 -277 130 -179 57 -294 74 -520 78 -145
2 -231 -1 -295 -11z"/>
<path d="M4050 5166 c-27 -33 18 -72 48 -42 13 13 14 20 6 34 -15 23 -38 26
-54 8z"/>
<path d="M4293 5095 c-23 -16 -52 -86 -72 -171 -8 -33 -23 -62 -42 -80 l-29
-28 0 26 c0 33 -17 80 -33 90 -6 3 -19 2 -28 -3 -10 -5 -27 -9 -38 -9 -32 0
-78 -47 -111 -114 -75 -152 -33 -282 74 -231 41 20 66 51 101 128 16 34 34 58
51 66 26 11 26 11 20 -16 -4 -15 -9 -60 -13 -98 -4 -58 -2 -73 11 -84 25 -21
75 -15 102 10 40 38 55 136 30 199 -4 10 6 20 33 33 36 16 71 60 59 73 -4 3
-20 -2 -37 -10 -16 -9 -43 -16 -59 -16 -29 0 -30 1 -22 33 16 71 34 117 52
136 21 23 23 52 6 69 -16 16 -29 15 -55 -3z m-228 -345 c-9 -40 -43 -90 -61
-90 -14 0 -16 7 -11 45 4 24 16 65 28 90 l22 47 14 -33 c7 -18 11 -45 8 -59z
m184 -94 c-9 -8 -10 -7 -5 7 3 10 7 26 7 35 1 9 4 6 6 -7 3 -13 -1 -28 -8 -35z"/>
<path d="M3021 4834 c-13 -9 -30 -32 -38 -51 -12 -31 -12 -38 2 -59 18 -28 35
-30 75 -9 31 16 60 61 60 93 0 42 -55 56 -99 26z"/>
<path d="M3563 4828 c-31 -36 -34 -43 -43 -133 -6 -54 -18 -106 -34 -140 -58
-128 -187 -208 -224 -138 -9 16 -5 18 27 18 51 1 98 38 127 99 33 71 32 120
-5 157 -72 71 -200 9 -248 -121 -18 -50 -104 -202 -111 -196 -2 3 6 64 18 136
11 73 19 134 17 136 -2 3 -26 -3 -52 -13 -47 -18 -49 -19 -59 -73 -11 -55 -38
-108 -103 -205 -43 -64 -43 -58 6 210 20 116 33 212 28 214 -5 2 -28 -2 -52
-9 l-43 -12 -16 -89 c-9 -49 -19 -109 -22 -133 l-6 -44 -34 20 c-28 17 -39 18
-67 9 -43 -14 -88 -62 -121 -128 -27 -54 -111 -178 -127 -188 -14 -9 -11 8 21
140 15 66 27 122 24 124 -2 2 -27 -2 -56 -10 -46 -12 -53 -18 -56 -42 -3 -28
-16 -35 -27 -16 -13 21 -57 30 -91 19 -75 -25 -170 -177 -181 -289 -3 -34 -12
-61 -21 -68 -11 -9 -57 -13 -149 -13 -73 0 -133 2 -133 4 0 2 17 41 39 87 92
201 164 437 140 465 -23 28 -115 9 -150 -32 -9 -11 -22 -50 -29 -89 -21 -117
-78 -313 -111 -381 -17 -37 -42 -71 -57 -81 -59 -36 -69 -79 -26 -112 42 -33
101 -24 132 21 16 21 52 23 186 7 107 -13 153 0 183 48 17 27 20 28 43 16 48
-25 90 -14 143 36 26 24 29 25 38 9 6 -10 21 -18 35 -18 43 0 83 31 132 103
45 67 47 68 54 41 12 -44 47 -74 87 -74 41 0 94 29 111 60 l11 21 18 -22 c38
-47 99 -2 171 124 l41 72 -7 -58 c-7 -66 4 -87 45 -87 41 0 67 25 115 107 l44
75 16 -30 c16 -32 69 -62 108 -62 49 0 121 30 167 68 44 37 49 39 72 26 90
-50 279 59 279 162 l0 28 -34 -33 c-34 -33 -56 -34 -56 -3 0 9 -14 44 -30 77
-33 66 -37 100 -15 129 20 27 19 59 -3 79 -26 23 -55 21 -79 -5z m-213 -204
c0 -53 -50 -124 -87 -124 -21 0 17 99 52 134 23 23 35 20 35 -10z m215 -140
c-8 -13 -22 -24 -30 -24 -12 0 -9 12 12 53 26 49 28 51 31 24 2 -16 -4 -39
-13 -53z m-827 -76 c4 -55 -28 -146 -64 -179 -25 -24 -26 -24 -41 -4 -27 37 6
164 57 215 30 30 45 21 48 -32z m-428 -74 c22 -57 -53 -224 -99 -224 -59 0
-17 173 55 229 33 26 32 26 44 -5z"/>
<path d="M1541 4466 c-26 -31 14 -71 45 -45 8 7 14 22 12 33 -4 26 -40 33 -57
12z"/>
<path d="M4525 4474 c-16 -2 -66 -9 -110 -15 -232 -30 -530 -107 -1065 -274
-920 -287 -1221 -352 -1660 -362 -312 -7 -478 16 -706 98 -47 17 -87 29 -89
27 -3 -3 8 -222 25 -489 16 -266 35 -584 41 -707 l12 -222 51 -15 c260 -77
711 -86 1042 -20 244 49 477 132 1109 394 713 297 1063 415 1445 490 221 43
339 55 560 55 231 0 360 -14 538 -59 108 -27 103 -37 68 115 -126 552 -375
860 -778 961 -66 16 -122 21 -268 24 -102 2 -198 1 -215 -1z m90 -147 c-12
-18 -18 -74 -25 -228 -5 -112 -15 -284 -21 -381 -12 -168 -11 -179 6 -198 10
-11 14 -20 9 -20 -5 0 -46 -9 -90 -19 l-82 -18 5 36 c3 25 -11 93 -46 215 -50
175 -60 204 -62 175 0 -8 -8 -99 -18 -204 -15 -155 -16 -196 -6 -221 l13 -32
-73 -21 c-41 -12 -80 -24 -89 -27 -13 -5 -13 -1 -4 24 10 26 0 75 -82 389 -93
359 -111 413 -132 413 -26 0 5 13 74 31 92 24 89 24 78 -7 -8 -21 1 -69 45
-243 65 -252 66 -254 71 -249 2 2 13 113 24 246 18 224 19 245 4 267 -9 14
-21 25 -28 26 -6 1 29 10 78 20 49 10 91 17 93 15 3 -2 0 -13 -6 -24 -6 -12
-11 -30 -11 -42 0 -27 110 -422 120 -433 18 -20 34 470 17 505 -8 15 -1 17 50
21 32 2 68 4 81 5 21 2 22 1 7 -21z m232 -6 c-9 -25 -6 -36 23 -87 74 -132
215 -354 218 -345 2 6 -13 97 -33 203 -25 137 -42 201 -57 222 l-21 29 34 -6
c19 -4 58 -9 87 -13 57 -7 56 -7 42 -34 -7 -13 -1 -60 20 -167 17 -81 46 -233
65 -338 26 -139 41 -198 57 -219 l21 -29 -24 6 c-13 4 -58 7 -98 7 -58 0 -72
3 -63 12 7 7 12 22 12 35 0 22 -251 436 -259 428 -2 -3 11 -98 29 -212 23
-149 38 -216 51 -235 14 -20 16 -28 7 -29 -7 0 -46 -4 -85 -8 -40 -4 -73 -5
-73 -3 0 2 5 12 10 23 18 33 -86 718 -115 763 l-17 26 90 0 90 0 -11 -29z
m-1009 -168 c54 -40 59 -67 82 -381 15 -212 18 -304 10 -331 -15 -58 -69 -131
-119 -163 -144 -91 -260 -59 -280 78 -16 106 -44 561 -37 607 13 87 90 174
178 203 56 18 132 12 166 -13z m-414 -165 c21 -88 21 -89 -15 -71 -33 17 -75
14 -125 -8 l-30 -14 27 -383 c23 -327 30 -386 45 -403 9 -10 15 -21 13 -22 -2
-2 -43 -20 -92 -40 l-87 -36 16 31 c15 28 14 60 -11 422 -15 215 -29 392 -30
394 -1 1 -28 -7 -58 -18 -42 -16 -64 -32 -87 -63 l-30 -41 6 79 c4 44 10 89
14 100 6 16 52 34 211 86 112 36 207 63 210 60 3 -3 14 -36 23 -73z m-584
-101 c0 -1 -4 -16 -9 -34 -8 -28 40 -807 50 -818 12 -11 147 58 175 89 l30 35
-12 -92 c-7 -51 -13 -93 -13 -94 -1 -2 -209 -83 -269 -104 -50 -17 -54 -17
-47 -1 17 44 16 109 -10 490 -22 325 -31 415 -45 444 l-17 38 76 24 c78 24 91
28 91 23z m-414 -139 c-12 -28 -10 -89 15 -437 16 -223 30 -408 31 -411 2 -4
34 3 73 16 51 17 79 33 104 60 l34 37 -6 -34 c-4 -19 -9 -62 -13 -96 l-7 -63
-158 -52 c-88 -28 -162 -49 -165 -46 -3 4 -1 15 5 26 16 30 13 125 -18 553
-22 314 -30 391 -44 413 -17 25 -17 26 5 31 13 3 50 11 83 19 33 8 63 15 67
15 4 1 1 -14 -6 -31z m-244 -103 c24 -95 24 -96 -13 -78 -26 13 -41 13 -120 1
-50 -7 -91 -16 -91 -21 -2 -19 14 -265 18 -293 l6 -31 69 12 c38 7 78 20 89
30 25 22 27 17 33 -92 5 -80 4 -82 -14 -72 -14 7 -42 7 -95 -2 l-74 -12 0 -36
c0 -52 18 -263 23 -267 2 -2 39 3 83 12 79 16 118 33 141 63 11 14 12 13 13
-9 0 -14 -3 -55 -6 -92 l-7 -66 -86 -21 c-82 -21 -243 -51 -268 -51 -8 0 -8
11 2 43 18 62 -43 943 -69 982 -10 15 -16 28 -14 30 2 1 70 10 153 19 82 10
152 19 154 22 3 3 16 4 30 2 22 -3 27 -12 43 -73z m-777 34 c3 -4 1 -17 -5
-30 -8 -18 -7 -80 4 -233 8 -115 17 -211 20 -214 3 -2 46 -7 97 -10 l91 -5 -6
64 c-3 35 -11 129 -17 209 -7 104 -15 155 -28 180 l-18 35 87 -3 88 -3 -11
-29 c-15 -40 49 -953 70 -993 8 -16 12 -32 8 -35 -6 -7 -156 -21 -163 -16 -2
1 2 13 9 25 12 23 9 187 -7 359 l-7 70 -93 0 c-69 0 -94 -3 -94 -12 0 -7 7
-98 14 -201 11 -141 18 -194 31 -213 9 -14 14 -28 11 -31 -3 -3 -43 -2 -90 2
l-84 7 14 34 c13 30 10 88 -20 520 -30 417 -38 490 -54 517 l-18 32 82 -10
c45 -5 85 -13 89 -16z"/>
<path d="M3664 4036 c-57 -25 -60 -46 -39 -352 10 -151 23 -284 29 -297 24
-47 124 -22 153 37 13 28 12 62 -5 309 -16 237 -21 280 -37 297 -21 23 -56 25
-101 6z"/>
<path d="M1482 4328 c2 -15 10 -23 23 -23 30 0 27 39 -3 43 -20 3 -23 0 -20
-20z"/>
<path d="M5710 3844 c0 -4 13 -45 29 -93 53 -153 103 -362 105 -431 2 -108
-45 -151 -186 -170 -114 -16 -127 -20 -163 -52 -42 -36 -55 -87 -32 -122 25
-38 57 -39 159 -7 148 47 216 62 307 68 110 7 187 -11 340 -78 222 -97 384
-127 616 -115 71 4 146 11 165 15 32 7 28 9 -65 30 -144 33 -280 78 -355 117
-36 19 -112 75 -170 125 -58 50 -145 123 -195 161 -49 39 -81 68 -70 65 140
-43 343 -72 447 -64 75 6 178 40 178 58 0 5 -26 9 -57 9 -32 0 -98 9 -148 19
-176 37 -312 104 -554 275 -143 101 -220 148 -289 175 -58 23 -62 24 -62 15z"/>
<path d="M620 3784 c-1 -32 123 -1499 127 -1503 3 -5 361 26 405 35 26 5 26 7
21 62 -3 31 -8 60 -12 64 -3 3 -58 11 -121 18 -63 6 -119 15 -123 19 -5 5 -19
255 -33 557 -13 302 -27 590 -30 641 l-6 91 -61 11 c-147 25 -167 25 -167 5z"/>
<path d="M5442 3297 c-12 -93 -16 -207 -8 -207 2 0 18 13 36 30 31 29 111 60
156 60 50 0 126 23 154 47 36 30 39 67 7 87 -30 20 -198 64 -273 72 l-60 6
-12 -95z"/>
<path d="M4879 3110 c-34 -104 -59 -197 -55 -205 12 -33 49 -13 67 35 19 51
54 216 64 303 13 106 -13 61 -76 -133z"/>
<path d="M4614 3113 c-49 -122 -117 -242 -203 -358 l-66 -89 -5 99 -5 98 -50
18 c-69 24 -84 23 -159 -11 l-66 -29 0 -49 c0 -46 -2 -49 -25 -49 -22 0 -25 4
-25 38 0 33 -4 41 -25 49 -23 9 -25 14 -25 80 0 66 -1 70 -26 76 -14 4 -36 2
-50 -5 -22 -10 -24 -16 -24 -81 0 -65 -2 -71 -25 -82 l-25 -11 0 -154 0 -155
-29 7 c-17 3 -39 2 -49 -4 -19 -10 -22 -2 -52 117 -17 70 -35 133 -39 140 -10
16 -71 -269 -71 -330 0 -51 -3 -54 -46 -37 -26 9 -31 7 -61 -28 l-32 -38 -1
49 c0 50 -59 296 -70 296 -11 0 -70 -302 -70 -356 0 -43 -3 -53 -20 -57 -19
-5 -20 0 -20 128 l0 134 -55 20 c-31 12 -61 21 -68 21 -7 0 -44 -13 -82 -29
l-70 -30 -3 -85 c-3 -84 -3 -86 -25 -81 -13 4 -35 1 -50 -4 l-27 -11 0 83 0
82 -49 18 c-63 22 -65 22 -138 -9 l-63 -27 0 -144 c0 -78 -2 -143 -5 -143 -30
0 -286 121 -374 177 -29 19 -56 32 -59 29 -22 -23 216 -174 380 -241 l83 -34
5 166 5 166 53 20 c45 17 58 18 92 8 22 -6 40 -17 40 -22 0 -6 -7 -8 -16 -5
-9 3 -27 9 -40 12 l-24 6 0 -190 c0 -105 3 -193 8 -195 4 -2 19 -7 35 -11 l27
-6 0 139 c0 131 -1 140 -20 146 -11 3 -20 11 -20 16 0 6 9 7 20 4 27 -9 25 9
-2 28 -28 18 -22 28 10 16 22 -8 22 -11 22 -178 0 -141 2 -170 15 -175 13 -5
15 12 15 110 l0 114 27 11 c15 5 38 8 50 4 22 -5 23 -9 23 -129 0 -97 3 -125
14 -129 8 -3 17 -3 20 0 3 4 6 104 6 223 l0 216 55 23 c51 21 60 22 100 11
l45 -13 0 -233 c0 -227 1 -234 20 -234 19 0 20 7 20 90 l0 90 41 17 c41 16 41
16 36 62 -3 36 25 227 36 237 1 1 0 -61 -1 -138 -3 -114 -1 -140 10 -136 9 3
15 30 19 84 l5 79 2 -90 3 -90 49 55 49 55 1 -137 c0 -160 -6 -154 110 -115
l65 22 3 161 2 161 37 17 c22 11 46 15 64 11 l29 -7 0 -143 c0 -124 2 -144 15
-139 13 5 15 49 15 305 l0 299 25 12 c23 10 25 16 25 85 0 57 3 73 15 73 11 0
15 -16 17 -67 3 -59 6 -69 26 -78 13 -6 22 -18 22 -33 0 -19 -4 -21 -25 -16
l-25 6 0 -266 c0 -146 3 -266 8 -266 4 0 24 11 45 25 l37 26 0 208 c0 182 2
210 16 215 9 3 20 4 25 0 5 -3 9 -91 9 -195 0 -148 3 -190 13 -187 9 4 13 64
15 250 l2 245 63 24 c59 23 64 24 105 10 l42 -15 0 -156 1 -155 45 50 c62 69
157 212 209 315 42 84 115 278 115 306 0 35 -20 6 -56 -83z m-644 -399 c0 -2
-7 -4 -15 -4 -8 0 -15 4 -15 10 0 5 7 7 15 4 8 -4 15 -8 15 -10z m0 -34 c0 -5
-4 -10 -9 -10 -6 0 -13 5 -16 10 -3 6 1 10 9 10 9 0 16 -4 16 -10z m-328 -220
c-2 -109 -6 -150 -15 -149 -18 1 -54 17 -39 18 8 1 12 19 12 57 0 58 31 224
42 224 2 0 2 -67 0 -150z m-265 8 c-3 -8 -6 -5 -6 6 -1 11 2 17 5 13 3 -3 4
-12 1 -19z m10 -40 c-3 -8 -6 -5 -6 6 -1 11 2 17 5 13 3 -3 4 -12 1 -19z"/>
<path d="M4210 2643 l0 -207 40 39 40 39 0 93 c0 74 -3 95 -15 99 -8 4 -15 12
-15 20 0 8 6 11 15 8 12 -5 15 4 15 44 0 47 -2 51 -31 61 -18 6 -36 11 -40 11
-5 0 -9 -93 -9 -207z"/>
<path d="M4716 2813 c-4 -10 2 -29 15 -46 l22 -30 -36 7 c-30 6 -38 3 -47 -14
-10 -19 -8 -20 46 -20 40 0 67 -6 90 -20 l33 -21 11 21 c9 17 7 22 -23 36 -18
9 -46 36 -63 60 -32 48 -39 52 -48 27z"/>
<path d="M4635 2664 c-8 -9 -22 -29 -30 -44 -15 -28 -15 -29 38 -61 28 -17 62
-38 73 -46 20 -13 23 -11 48 32 36 60 27 88 -29 96 -5 1 -16 10 -23 20 -16 23
-55 25 -77 3z m48 -30 c3 -4 2 -16 -4 -26 -13 -24 -35 -9 -26 16 7 17 19 21
30 10z m57 -49 c0 -17 -17 -28 -30 -20 -7 4 -7 13 0 26 12 21 30 17 30 -6z"/>
<path d="M4531 2515 c-17 -20 -31 -37 -31 -39 0 -3 30 -28 66 -57 58 -46 67
-50 81 -37 13 14 12 18 -11 36 -36 28 -32 35 15 27 30 -5 44 -3 50 6 13 21 11
29 -10 29 -29 0 -51 11 -51 25 0 18 -34 45 -57 45 -12 0 -35 -16 -52 -35z m69
-19 c0 -7 -6 -19 -14 -25 -19 -16 -41 10 -24 27 16 16 38 15 38 -2z"/>
<path d="M3120 2270 l0 -240 40 0 40 0 0 89 c0 70 -3 90 -15 95 -8 3 -15 10
-15 16 0 5 7 10 15 10 12 0 15 13 15 60 0 45 -4 62 -15 66 -8 4 -15 10 -15 15
0 5 7 9 15 9 11 0 15 12 15 49 0 46 -2 50 -31 60 -18 6 -36 11 -40 11 -5 0 -9
-108 -9 -240z"/>
<path d="M4441 2408 l-35 -41 63 -60 64 -59 37 43 c28 33 35 47 27 57 -8 10
-16 7 -38 -14 -35 -34 -57 -23 -30 15 15 21 17 31 9 39 -9 9 -17 7 -34 -9 -34
-32 -52 -13 -20 20 20 21 23 30 14 39 -17 17 -19 16 -57 -30z"/>
<path d="M1810 2350 c0 -16 230 -249 252 -256 26 -8 54 18 42 39 -15 24 -268
227 -285 227 -5 0 -9 -5 -9 -10z"/>
<path d="M4323 2290 l-33 -29 56 -61 c31 -33 60 -60 64 -60 4 0 22 13 39 29
40 38 39 68 -3 114 -42 46 -78 48 -123 7z m101 -43 c18 -24 18 -29 5 -42 -13
-14 -19 -11 -48 19 -19 19 -30 39 -26 46 11 18 47 7 69 -23z"/>
<path d="M4167 2165 c-20 -14 -37 -29 -37 -33 0 -4 22 -37 48 -74 40 -55 50
-65 65 -57 16 10 16 12 -2 38 -25 35 -17 45 21 25 28 -14 68 -11 68 5 0 5 -13
14 -30 21 -21 9 -30 19 -30 36 0 26 -32 64 -53 64 -7 0 -29 -11 -50 -25z m50
-53 c-16 -15 -19 -15 -27 -2 -7 11 -5 19 7 28 25 18 42 -3 20 -26z"/>
<path d="M4053 2092 c-24 -15 -43 -31 -43 -35 0 -5 19 -40 41 -78 l41 -69 49
28 c27 15 49 32 49 39 0 21 -19 25 -42 9 -12 -9 -28 -16 -35 -16 -22 0 -14 24
12 40 18 11 22 19 15 30 -8 13 -13 13 -39 -2 -25 -14 -30 -14 -35 -2 -4 12 9
25 52 50 5 3 -10 34 -17 33 -3 0 -25 -13 -48 -27z"/>
<path d="M2220 2070 c-27 -27 -25 -46 5 -74 27 -25 33 -46 13 -46 -6 0 -22 10
-35 22 -16 15 -27 18 -33 12 -16 -16 -1 -43 31 -59 37 -20 52 -19 72 3 24 26
21 55 -8 82 -14 13 -21 28 -17 32 10 10 42 0 42 -13 0 -5 9 -9 21 -9 15 0 19
4 15 16 -3 9 -6 17 -6 20 0 6 -58 34 -70 34 -5 0 -19 -9 -30 -20z"/>
<path d="M2390 2051 c0 -12 46 -41 65 -41 25 0 17 24 -12 38 -32 14 -53 16
-53 3z"/>
<path d="M2335 1950 c-47 -47 -57 -62 -47 -72 9 -9 17 -10 30 -2 22 15 62 -3
62 -27 0 -14 28 -35 35 -27 2 2 6 45 10 96 7 86 6 92 -12 92 -10 0 -45 -27
-78 -60z m55 -30 c0 -13 -5 -18 -15 -14 -12 5 -13 10 -4 20 15 19 19 18 19 -6z"/>
<path d="M3890 1995 c0 -9 16 -47 35 -85 l35 -70 51 25 c65 33 54 69 -13 40
-14 -5 -23 4 -45 49 -18 37 -33 56 -45 56 -10 0 -18 -7 -18 -15z"/>
<path d="M2491 1941 c-11 -11 -25 -38 -32 -60 -15 -51 -1 -88 36 -97 43 -11
71 9 90 65 19 58 10 86 -31 101 -35 14 -41 13 -63 -9z m61 -33 c8 -21 -18 -83
-35 -86 -25 -5 -30 21 -13 62 15 36 40 48 48 24z"/>
<path d="M3772 1951 c-11 -7 -7 -24 18 -85 18 -42 36 -76 40 -76 5 0 29 9 54
20 34 14 44 23 40 35 -4 9 -13 14 -21 11 -54 -21 -57 -19 -81 44 -24 62 -28
66 -50 51z"/>
<path d="M3654 1912 c-34 -23 -34 -85 0 -137 30 -46 116 -20 116 35 0 27 -27
92 -43 102 -15 10 -59 10 -73 0z m62 -58 c17 -40 13 -64 -10 -64 -19 0 -36 30
-36 63 0 49 26 50 46 1z"/>
<path d="M2677 1828 c-22 -91 -21 -98 2 -98 13 0 21 8 23 23 2 17 10 23 39 25
46 4 74 32 65 66 -7 29 -26 41 -77 51 l-35 6 -17 -73z m88 1 c-9 -14 -45 -11
-45 4 0 8 3 17 6 20 10 9 46 -12 39 -24z"/>
<path d="M3488 1873 c-22 -6 -22 -12 -2 -102 13 -59 20 -71 36 -71 18 0 19 4
14 35 -8 42 6 46 30 10 10 -15 26 -25 40 -25 29 0 30 5 5 36 -14 18 -18 34
-14 59 3 21 1 41 -7 50 -12 14 -63 18 -102 8z m72 -49 c0 -8 -9 -14 -19 -14
-25 0 -35 27 -13 33 22 5 32 -1 32 -19z"/>
<path d="M2822 1780 l-43 -80 25 0 c14 0 26 5 26 10 0 6 13 10 29 10 20 0 30
-6 34 -20 3 -11 12 -20 21 -20 23 0 21 23 -9 158 -10 44 -39 25 -83 -58z m58
-7 c0 -19 -3 -24 -10 -17 -6 6 -8 18 -4 27 9 24 14 21 14 -10z"/>
<path d="M2967 1788 c-8 -84 10 -118 64 -118 41 0 61 31 66 105 5 61 5 65 -16
65 -16 0 -21 -6 -21 -27 0 -64 -12 -103 -31 -103 -21 0 -22 3 -19 83 2 51 0
57 -18 57 -16 0 -20 -9 -25 -62z"/>
<path d="M3282 1834 c-17 -11 -22 -25 -22 -57 0 -83 51 -128 104 -93 23 14 26
23 26 71 0 42 -5 60 -20 75 -24 24 -57 26 -88 4z m66 -72 c2 -32 -1 -44 -13
-49 -21 -8 -35 13 -35 53 0 35 8 46 30 42 10 -2 16 -17 18 -46z"/>
<path d="M3130 1755 l0 -85 60 0 c47 0 60 3 60 15 0 11 -11 15 -40 15 l-40 0
0 70 c0 63 -2 70 -20 70 -18 0 -20 -7 -20 -85z"/>
</g>
</svg>
