<svg xmlns="http://www.w3.org/2000/svg" viewBox="0 0 15 15.31" aria-labelledby="instaTitle" role="img"><defs><style>.cls-1{fill:#fff;}</style></defs><title id="instaTitle">instagram</title><g id="Camada_2" data-name="Camada 2"><g id="HOME"><path class="cls-1" d="M15,4.34A4.34,4.34,0,0,0,10.66,0H4.34A4.34,4.34,0,0,0,0,4.34V11a4.34,4.34,0,0,0,4.34,4.34h6.33A4.34,4.34,0,0,0,15,11ZM13.75,11a3,3,0,0,1-.91,2.2,3.06,3.06,0,0,1-2.23.89H4.38A3.06,3.06,0,0,1,1.25,11V4.34A3.06,3.06,0,0,1,4.38,1.25h6.23a3.06,3.06,0,0,1,2.23.89,3,3,0,0,1,.91,2.2Z"/><path class="cls-1" d="M7.52,3.49a4.1,4.1,0,1,0,4.1,4.1A4.1,4.1,0,0,0,7.52,3.49Zm0,6.8A2.69,2.69,0,1,1,10.18,7.6,2.69,2.69,0,0,1,7.5,10.29Z"/><circle class="cls-1" cx="11.69" cy="3.43" r="0.97"/></g></g></svg>